<?xml version="1.0" standalone="no"?>
<!DOCTYPE svg PUBLIC "-//W3C//DTD SVG 20010904//EN"
 "http://www.w3.org/TR/2001/REC-SVG-20010904/DTD/svg10.dtd">
<svg version="1.0" xmlns="http://www.w3.org/2000/svg"
 width="512.000000pt" height="512.000000pt" viewBox="0 0 512.000000 512.000000"
 preserveAspectRatio="xMidYMid meet">
<metadata>
Created by potrace 1.14, written by Peter Selinger 2001-2017
</metadata>
<g transform="translate(0.000000,512.000000) scale(0.100000,-0.100000)"
fill="#000000" stroke="none">
<path d="M3692 3098 c-7 -7 -12 -20 -12 -29 0 -18 12 -24 202 -90 54 -19 98
-37 98 -40 0 -4 -8 -9 -17 -12 -10 -3 -218 -73 -461 -156 -307 -104 -442 -145
-438 -135 3 9 6 63 6 120 l0 104 170 0 170 0 0 -50 c0 -27 5 -50 10 -50 6 0
10 20 10 44 0 24 3 51 6 60 5 14 -16 16 -195 16 l-202 0 2 -129 c0 -71 -2
-134 -6 -140 -4 -8 -449 -11 -1521 -11 l-1514 0 0 -40 0 -40 1514 0 1514 0
218 76 c121 41 282 97 359 124 77 26 224 77 327 113 l187 65 48 -18 c42 -15
522 -184 816 -286 53 -19 101 -34 106 -34 12 0 33 52 24 61 -4 4 -143 55 -308
113 -165 57 -462 161 -660 231 -462 163 -432 154 -453 133z"/>
<path d="M2964 2971 c-2 -2 -4 -15 -4 -28 l0 -23 277 2 c254 3 276 4 279 20 1
10 -2 20 -6 23 -11 7 -540 12 -546 6z"/>
<path d="M3990 2809 c-63 -23 -218 -77 -345 -121 -126 -45 -286 -100 -355
-124 l-125 -42 955 0 c525 0 948 3 940 6 -8 3 -96 33 -195 68 -99 34 -305 105
-457 158 -153 53 -283 96 -290 95 -7 0 -65 -18 -128 -40z m241 -14 c57 -20
113 -40 124 -44 18 -8 335 -120 445 -158 25 -8 54 -19 65 -23 11 -5 27 -11 35
-13 8 -3 -340 -6 -774 -6 -434 -1 -787 1 -785 3 4 4 231 85 494 177 77 27 149
53 160 59 18 8 111 38 126 39 3 1 52 -15 110 -34z"/>
<path d="M3265 2734 c-20 -15 -12 -17 19 -5 11 4 15 10 10 13 -5 4 -18 0 -29
-8z"/>
<path d="M3200 2709 c0 -5 5 -7 10 -4 6 3 10 8 10 11 0 2 -4 4 -10 4 -5 0 -10
-5 -10 -11z"/>
<path d="M3143 2690 c-34 -14 -28 -21 7 -9 17 6 30 13 30 15 0 6 -12 4 -37 -6z"/>
<path d="M1165 2416 c-46 -20 -67 -51 -73 -104 -7 -82 41 -142 116 -142 35 0
92 37 109 70 32 62 1 149 -62 176 -42 17 -51 17 -90 0z m67 -63 c25 -22 24
-84 -2 -108 -52 -47 -96 58 -44 109 19 20 23 20 46 -1z"/>
<path d="M1405 2416 c-16 -7 -37 -25 -45 -40 -12 -24 -12 -31 1 -54 8 -15 30
-35 49 -44 58 -30 39 -54 -26 -33 -17 5 -23 2 -28 -21 -10 -38 6 -49 70 -49
49 0 59 4 80 28 13 15 24 36 24 45 0 28 -30 63 -66 78 -46 19 -45 38 1 31 32
-5 37 -3 46 20 5 15 6 30 2 34 -16 15 -79 19 -108 5z"/>
<path d="M3525 2423 c-31 -8 -65 -44 -65 -70 0 -38 15 -58 60 -78 62 -28 47
-45 -30 -34 -20 3 -26 -1 -28 -20 -11 -71 146 -65 164 6 13 52 -11 83 -91 117
-23 10 19 24 43 15 18 -7 28 -6 34 3 28 45 -18 77 -87 61z"/>
<path d="M29 2415 c-8 -36 -1 -50 26 -55 l29 -5 0 -90 1 -90 35 0 35 0 3 93 3
92 29 0 c27 0 30 3 30 30 l0 30 -95 0 c-52 0 -95 -2 -96 -5z"/>
<path d="M248 2413 c-2 -4 -3 -60 -3 -123 l0 -115 80 0 80 0 0 30 c0 28 -3 30
-45 35 -57 6 -59 24 -2 28 39 3 42 5 42 32 0 27 -3 29 -42 32 -57 4 -55 22 2
28 40 4 45 8 45 30 0 24 -2 25 -77 28 -42 2 -78 -1 -80 -5z"/>
<path d="M499 2413 c-1 -5 0 -38 1 -75 2 -77 -11 -109 -43 -105 -18 2 -22 -3
-22 -28 0 -27 3 -30 36 -33 27 -2 44 3 65 22 28 23 29 28 32 125 l4 101 -36 0
c-20 0 -36 -3 -37 -7z"/>
<path d="M626 2306 c-20 -63 -36 -119 -36 -124 0 -5 14 -9 32 -8 24 1 36 9 48
31 24 43 47 44 65 2 12 -30 18 -34 47 -33 40 2 40 1 -2 139 l-33 107 -43 0
-42 0 -36 -114z m86 -1 c0 -5 -5 -11 -11 -13 -6 -2 -11 4 -11 13 0 9 5 15 11
13 6 -2 11 -8 11 -13z"/>
<path d="M849 2416 c-2 -2 -2 -58 1 -123 l5 -118 47 -3 c69 -4 134 27 153 72
28 67 10 133 -45 161 -26 13 -150 22 -161 11z m129 -69 c6 -5 12 -27 12 -48 0
-28 -6 -42 -22 -53 -40 -29 -48 -21 -48 47 0 35 3 66 6 70 7 6 33 -1 52 -16z"/>
<path d="M1610 2416 c0 -2 18 -36 40 -76 31 -56 40 -84 40 -120 0 -47 0 -48
33 -46 32 2 32 2 37 61 5 56 12 75 68 163 15 23 15 23 -29 20 -39 -3 -46 -7
-60 -38 l-17 -35 -15 38 c-15 34 -19 37 -56 37 -23 0 -41 -2 -41 -4z"/>
<path d="M1910 2390 c0 -27 3 -30 30 -30 l29 0 3 -92 3 -93 30 0 30 1 5 89 5
90 30 5 c23 4 29 10 29 30 0 25 -1 25 -97 28 l-97 3 0 -31z"/>
<path d="M2132 2298 l3 -123 80 0 80 0 0 30 c0 29 -2 30 -47 33 -63 4 -67 29
-5 34 37 3 42 6 42 28 0 22 -5 25 -42 28 -29 2 -43 8 -43 18 0 10 12 14 45 14
43 0 45 1 45 30 l0 30 -80 0 -81 0 3 -122z"/>
<path d="M2332 2298 l3 -123 30 0 c29 0 30 2 33 48 4 56 21 59 35 6 11 -44 21
-53 57 -55 35 -2 36 5 14 71 -13 37 -14 52 -5 66 18 29 13 64 -12 87 -19 18
-35 22 -90 22 l-68 0 3 -122z m106 43 c-5 -24 -38 -27 -38 -3 0 10 3 21 6 25
11 11 35 -5 32 -22z"/>
<path d="M2552 2298 l3 -123 30 0 c29 0 30 2 33 48 3 41 5 47 18 37 8 -7 14
-20 14 -29 0 -30 27 -55 59 -57 17 -1 31 1 31 4 0 14 -25 89 -33 100 -7 8 -4
18 7 30 24 28 20 67 -10 91 -21 16 -41 21 -91 21 l-64 0 3 -122z m98 57 c14
-16 6 -35 -16 -35 -8 0 -14 10 -14 25 0 28 12 32 30 10z"/>
<path d="M2788 2303 c-21 -69 -32 -121 -26 -124 22 -14 63 -4 66 16 10 53 47
59 67 11 12 -29 19 -33 47 -32 40 3 40 4 -3 142 l-32 104 -42 0 -42 0 -35
-117z m83 -6 c-13 -13 -26 -3 -16 12 3 6 11 8 17 5 6 -4 6 -10 -1 -17z"/>
<path d="M3009 2415 c-9 -41 -3 -50 39 -53 23 -2 42 -5 42 -8 0 -2 -20 -32
-45 -67 -31 -42 -45 -70 -43 -87 3 -25 4 -25 93 -25 l90 0 3 33 c3 32 3 32
-42 32 -25 0 -46 2 -46 5 0 2 20 33 45 68 25 36 45 74 45 86 0 20 -5 21 -90
21 -49 0 -90 -2 -91 -5z"/>
<path d="M3275 2408 c-33 -98 -65 -220 -61 -227 8 -12 47 -11 64 2 6 5 12 17
12 27 0 20 23 32 43 24 7 -2 18 -17 24 -33 9 -25 15 -29 44 -27 27 2 33 6 31
20 -5 25 -61 206 -67 217 -9 14 -85 11 -90 -3z m55 -103 c0 -8 -4 -15 -10 -15
-5 0 -10 7 -10 15 0 8 5 15 10 15 6 0 10 -7 10 -15z"/>
<path d="M3755 2323 c-3 -54 -7 -109 -8 -123 -2 -20 3 -25 25 -27 33 -2 43 11
39 53 -4 50 15 49 28 -1 10 -40 14 -45 40 -45 26 0 30 5 40 45 15 58 29 57 33
-2 3 -46 4 -48 33 -48 l30 0 -4 95 c-6 158 -2 145 -51 145 l-43 0 -16 -55
c-18 -60 -21 -59 -41 13 -13 47 -13 47 -55 47 l-43 0 -7 -97z"/>
<path d="M4106 2408 c-30 -90 -66 -211 -66 -221 0 -9 12 -14 31 -14 26 0 34 6
43 28 18 49 54 49 73 0 9 -25 15 -28 44 -26 19 2 35 3 35 4 1 1 -15 54 -35
119 l-38 117 -41 3 c-28 2 -44 -1 -46 -10z m54 -103 c0 -8 -4 -15 -10 -15 -5
0 -10 7 -10 15 0 8 5 15 10 15 6 0 10 -7 10 -15z"/>
<path d="M4294 2407 c-2 -7 -3 -62 -2 -123 l3 -109 67 1 c101 1 151 44 151
131 0 40 -4 50 -36 80 -34 31 -41 33 -107 33 -49 0 -72 -4 -76 -13z m120 -58
c34 -26 34 -68 2 -99 -39 -36 -56 -21 -56 48 0 79 8 87 54 51z"/>
<path d="M4549 2413 c-3 -41 1 -225 6 -232 3 -6 18 -9 33 -8 24 2 27 7 29 42
1 22 2 44 2 49 2 20 29 -18 35 -49 4 -19 10 -35 14 -36 4 0 22 -2 40 -3 17 -2
32 -1 32 2 0 14 -25 89 -33 100 -7 8 -4 18 7 30 24 28 20 67 -10 91 -21 16
-41 21 -90 21 -35 0 -64 -3 -65 -7z m101 -58 c14 -16 6 -35 -16 -35 -8 0 -14
10 -14 25 0 28 12 32 30 10z"/>
<path d="M4762 2298 l3 -123 35 0 35 0 3 123 3 122 -41 0 -41 0 3 -122z"/>
<path d="M4882 2299 l3 -124 66 1 c76 1 118 23 139 74 18 44 7 108 -24 139
-23 23 -36 26 -106 30 l-81 3 3 -123z m135 30 c15 -29 8 -58 -19 -81 -38 -33
-48 -23 -48 45 0 35 3 66 6 70 11 11 49 -10 61 -34z"/>
<path d="M17 2093 c-5 -11 -2 -62 5 -68 2 -3 1146 -6 2541 -8 l2537 -2 0 43 0
42 -2539 0 c-1397 0 -2542 -3 -2544 -7z"/>
</g>
</svg>
