<svg width="171" height="35" viewBox="0 0 171 35" fill="none" xmlns="http://www.w3.org/2000/svg">
<path d="M0 34.3875H8.44133V23.45L15.0921 34.3875H24.3861L15.6037 20.475L23.7039 9.1875H15.0068L8.44133 19.25V0H0V34.3875ZM36.3233 35C43.6562 35 48.0047 31.7625 48.7721 26.075H40.9277C40.5866 27.7375 39.3929 28.9625 36.7496 28.9625C33.7653 28.9625 31.9747 27.125 31.6337 23.7125H48.9427V21.525C48.9427 12.425 43.2298 8.575 36.4938 8.575C29.161 8.575 23.2776 13.65 23.2776 21.7V22.05C23.1071 30.3625 28.7346 35 36.3233 35ZM31.7189 18.9875C32.1453 15.925 33.8506 14.175 36.4086 14.175C39.1371 14.175 40.5866 15.8375 40.7571 18.9875H31.7189ZM51.0743 34.3875H59.5156V22.4875C59.5156 18.4625 62.3294 16.8 67.4454 16.975V8.925C63.6937 8.925 61.1357 10.5 59.5156 14.35V9.275H51.0743V34.3875ZM78.1036 35C81.5995 35 84.2428 32.9875 85.4365 30.3625V34.3875H93.8778V9.275H85.4365V12.8625C84.0722 10.2375 81.8553 8.6625 78.1036 8.6625C72.7319 8.6625 67.8717 13.3 67.8717 21.7875V22.1375C68.0422 30.7125 72.7319 35 78.1036 35ZM81.1732 28.35C78.4447 28.35 76.6541 26.1625 76.6541 22.05V21.6125C76.6541 17.325 78.4447 15.1375 81.3437 15.1375C84.1575 15.1375 86.0333 17.325 86.0333 21.6125V21.875C85.7775 26.25 83.8164 28.35 81.1732 28.35ZM97.5443 34.3875H105.986V23.45L112.636 34.3875H121.93L113.233 20.475L121.333 9.1875H112.551L105.9 19.25V0H97.459C97.5443 0 97.5443 34.3875 97.5443 34.3875ZM134.038 28.525C130.713 28.525 129.263 26.25 129.263 21.875V21.525C129.263 17.325 131.054 15.05 134.038 15.05C137.193 15.05 138.813 17.325 138.813 21.7V22.05C138.813 26.25 137.193 28.525 134.038 28.525ZM134.038 35C141.541 35 147.425 30.1 147.425 21.875V21.525C147.425 13.475 141.541 8.575 134.038 8.575C126.535 8.575 120.651 13.65 120.651 21.7V22.05C120.651 30.1875 126.535 35 134.038 35ZM158.254 0H149.983V34.3875H158.254V0ZM170.532 0H162.261V34.3875H170.532V0Z" fill="white"/>
</svg>
